<svg version="1.2" xmlns="http://www.w3.org/2000/svg" viewBox="0 0 30 30" width="30" height="30"><style></style><path fill-rule="evenodd" d="m27.9 15q0 3.5-1.8 6.5-1.7 2.9-4.6 4.6-3 1.8-6.5 1.8-3.5 0-6.5-1.8-2.9-1.7-4.6-4.6-1.8-3-1.8-6.5 0-3.5 1.8-6.5 1.7-2.9 4.6-4.6 3-1.8 6.5-1.8 3.5 0 6.5 1.8 2.9 1.7 4.6 4.6 1.8 3 1.8 6.5zm-13.8 8.4l7.6-7.6q0.4-0.4 0.4-0.8 0-0.4-0.4-0.8l-7.6-7.6q-0.3-0.3-0.7-0.3-0.4 0-0.8 0.3l-1.7 1.8q-0.3 0.3-0.3 0.7 0 0.4 0.3 0.8l5.2 5.1-5.2 5.1q-0.3 0.4-0.3 0.8 0 0.4 0.3 0.7l1.7 1.8q0.4 0.3 0.8 0.3 0.4 0 0.7-0.3z"/></svg>